<svg width="993" height="1248" viewBox="0 0 993 1248" fill="none" xmlns="http://www.w3.org/2000/svg">
<path d="M311.029 1211.29C363.177 1232.29 419.794 1244.74 479.283 1246.85C559.709 1249.66 636.177 1233 704.602 1201.4C622.581 1169.17 548.283 1122.06 484.9 1063.46C443.858 1129.27 383.028 1181.23 311.029 1211.29Z" fill="#FF9100"/>
<path d="M484.9 1063.53C340.199 929.678 252.433 735.955 259.837 523.531C260.093 516.573 260.412 509.68 260.859 502.786C234.944 496.084 207.88 491.999 180.05 491.041C140.221 489.637 101.604 494.616 65.157 504.892C26.5401 572.552 3.24228 650.169 0.306123 733.338C-7.16194 947.934 122.731 1135.46 311.029 1211.29C383.028 1181.23 443.794 1129.34 484.9 1063.53Z" fill="#FFC400"/>
<path d="M484.9 1063.46C518.538 1009.66 538.964 946.529 541.326 878.551C547.581 699.636 427.326 545.743 260.858 502.786C260.475 509.679 260.092 516.573 259.837 523.467C252.433 735.955 340.199 929.678 484.9 1063.46Z" fill="#FF9100"/>
<path d="M522.688 0C427.901 75.8934 353.092 176.042 307.773 291.382C281.859 357.51 265.582 428.424 260.795 502.85C427.262 545.807 547.517 699.7 541.262 878.551C538.9 946.593 518.411 1009.66 484.837 1063.53C548.219 1122.19 622.517 1169.23 704.538 1201.46C869.155 1125.38 985.963 961.657 992.729 767.934C997.069 642.509 948.878 530.615 880.772 436.275C808.772 336.382 522.688 0 522.688 0Z" fill="#DD2C00"/>
</svg>
